# xmcd
#
# Track frame offsets: 
#        187
#        16240
#        33080
#        46282
#        62720
#        78985
#        99980
#        116945
#        131985
#        145710
#        158205
#
# Disc length: 2321 seconds
#
# Revision: 3
# Processed by: cddbd v1.5.2PL0 Copyright (c) Steve Scherf et al.
# Submitted via: ExactAudioCopy v0.95b3
#
DISCID=8c090f0b
DTITLE=Lorrie Morgan - Reflections: Greatest Hits
DYEAR=1995
DGENRE=Country
TTITLE0=Five Minutes
TTITLE1=Dear Me
TTITLE2=Except For Monday
TTITLE3=A Picture Of Me (Without You)
TTITLE4=Watch Me
TTITLE5=Something In Red
TTITLE6=Back In Your Arms Again
TTITLE7=I Didn't Know My Own Strength
TTITLE8=Standing Tall
TTITLE9=What Part Of No
TTITLE10='Til A Tear Becomes A Rose (Duet With Keith Whitley)
EXTD=
EXTT0=
EXTT1=
EXTT2=
EXTT3=
EXTT4=
EXTT5=
EXTT6=
EXTT7=
EXTT8=
EXTT9=
EXTT10=
PLAYORDER=
